<?xml version="1.0" encoding="UTF-8" standalone="no"?>
<!-- Created with Inkscape (http://www.inkscape.org/) -->

<svg
   xmlns:dc="http://purl.org/dc/elements/1.1/"
   xmlns:cc="http://creativecommons.org/ns#"
   xmlns:rdf="http://www.w3.org/1999/02/22-rdf-syntax-ns#"
   xmlns:svg="http://www.w3.org/2000/svg"
   xmlns="http://www.w3.org/2000/svg"
   xmlns:sodipodi="http://sodipodi.sourceforge.net/DTD/sodipodi-0.dtd"
   xmlns:inkscape="http://www.inkscape.org/namespaces/inkscape"
   id="svg2876"
   version="1.1"
   inkscape:version="0.47 r22583"
   width="1116"
   height="233"
   sodipodi:docname="tiedadal.pdf">
  <metadata
     id="metadata2882">
    <rdf:RDF>
      <cc:Work
         rdf:about="">
        <dc:format>image/svg+xml</dc:format>
        <dc:type
           rdf:resource="http://purl.org/dc/dcmitype/StillImage" />
        <dc:title></dc:title>
      </cc:Work>
    </rdf:RDF>
  </metadata>
  <defs
     id="defs2880">
    <inkscape:perspective
       sodipodi:type="inkscape:persp3d"
       inkscape:vp_x="0 : 0.5 : 1"
       inkscape:vp_y="0 : 1000 : 0"
       inkscape:vp_z="1 : 0.5 : 1"
       inkscape:persp3d-origin="0.5 : 0.33333333 : 1"
       id="perspective2884" />
  </defs>
  <sodipodi:namedview
     pagecolor="#ffffff"
     bordercolor="#666666"
     borderopacity="1"
     objecttolerance="10"
     gridtolerance="10"
     guidetolerance="10"
     inkscape:pageopacity="0"
     inkscape:pageshadow="2"
     inkscape:window-width="1920"
     inkscape:window-height="1005"
     id="namedview2878"
     showgrid="false"
     inkscape:zoom="1.6263441"
     inkscape:cx="560.08598"
     inkscape:cy="114.41402"
     inkscape:window-x="0"
     inkscape:window-y="24"
     inkscape:window-maximized="1"
     inkscape:current-layer="svg2876" />
  <path
     style="fill:#000000"
     d="m 0.32234526,229.20679 c 0,-2.344 2.68540774,-6.65925 4.99200974,-8.0218 10.157799,-6.00036 19.181287,-15.86164 19.181287,-20.9622 0,-4.23261 -3.728237,-6.37122 -8.70931,-4.99588 -4.624918,1.277 -5.730111,0.40687 -4.447028,-3.50117 0.534156,-1.62695 1.463259,-4.88136 2.064672,-7.23204 1.335947,-5.22166 4.754942,-7.30908 11.97159,-7.30908 6.007928,0 10.418714,3.12177 12.249751,8.66987 4.003366,12.13032 -7.384379,27.25455 -30.2545606,40.18155 -6.1241551,3.46157 -7.04841114,3.87735 -7.04841114,3.17075 z M 42.994951,226.45441 c 0.362378,-1.8119 0.767461,-3.34626 0.900183,-3.4097 6.224361,-2.97499 19.186768,-14.39884 21.572159,-19.01169 3.22076,-6.22824 -0.993804,-10.85664 -7.979958,-8.76355 -2.188127,0.65558 -4.216609,0.95377 -4.507746,0.66263 -1.092472,-1.09247 3.257402,-14.30561 5.425757,-16.48123 4.289381,-4.30376 16.043244,-2.54015 19.915464,2.98821 2.357531,3.36585 2.063302,12.99991 -0.553699,18.12964 -4.251348,8.33334 -18.200198,20.45249 -31.005574,26.9385 l -4.425456,2.24153 0.65887,-3.29434 z m 70.408739,-23.98889 c -2.34294,-1.09874 -5.20241,-3.49711 -6.35438,-5.32973 -3.29825,-5.24696 -2.29325,-17.65451 2.92134,-36.0667 2.27495,-8.03259 5.90107,-20.83688 8.05807,-28.45399 l 3.9218,-13.84928 -7.93499,0 c -4.36425,0 -7.935,-0.42375 -7.935,-0.94165 0,-0.51792 0.43495,-2.08566 0.96655,-3.48389 0.91139,-2.39713 1.44009,-2.55895 9.26393,-2.83543 l 8.29738,-0.29319 6.26827,-19.525125 c 3.44756,-10.738817 6.87072,-20.084363 7.60703,-20.767884 1.52492,-1.415603 9.51841,-3.521102 13.36779,-3.521102 1.78449,0 2.57325,0.54143 2.56785,1.762637 -0.004,0.96945 -2.49715,10.544592 -5.53971,21.27809 -3.04255,10.733494 -5.53192,19.911794 -5.53192,20.396224 0,0.48442 3.17274,0.88077 7.05054,0.88077 6.27887,0 7.05055,0.21147 7.05055,1.93206 0,4.62346 -0.86016,5.11799 -8.92094,5.12898 l -7.6982,0.0105 -8.97701,31.37952 c -10.44104,36.49715 -10.9631,39.57624 -7.29147,43.00468 2.08214,1.94423 3.21285,2.26612 6.07445,1.72929 7.51086,-1.40906 19.61108,-12.77781 34.70786,-32.60975 7.87012,-10.33861 27.35804,-39.1552 27.35804,-40.45405 0,-0.53936 0.93544,-3.48085 2.07876,-6.53665 2.26394,-6.05092 3.19381,-6.58237 14.28857,-8.16634 4.17484,-0.59604 4.7843,-0.45417 4.7843,1.11368 0,0.98819 -5.03028,17.46995 -11.17841,36.62611 -12.15111,37.86015 -13.60213,44.79797 -10.10148,48.29861 2.70915,2.70916 5.38288,2.70421 11.01108,-0.0203 9.15254,-4.43067 35.62549,-34.57023 42.71452,-48.63062 11.44195,-22.69406 29.01556,-37.29489 47.50354,-39.46779 16.40741,-1.92837 29.29835,9.84082 25.83667,23.5884 -1.61701,6.42172 -3.26732,9.24274 -9.21247,15.74769 -9.18267,10.0473 -25.44353,19.87642 -43.44255,26.25948 -7.79896,2.76577 -7.80594,2.77152 -7.78384,6.41472 0.0745,12.28497 12.35384,21.6799 25.17234,19.25939 13.60582,-2.56916 25.58943,-10.15955 41.28211,-26.14799 8.72846,-8.89297 10.97282,-11.8268 12.8486,-16.79576 5.92521,-15.69595 22.37886,-33.79338 37.86119,-41.64364 7.75955,-3.93447 9.60958,-4.45704 17.18685,-4.85475 6.04055,-0.31704 9.81673,0.006 13.08372,1.11913 l 4.59244,1.5648 0.9853,-3.70897 c 0.54193,-2.03992 5.29076,-20.43703 10.55297,-40.882435 5.26221,-20.445409 9.93695,-37.542764 10.38831,-37.994123 1.01794,-1.017939 14.42318,-2.980714 15.5598,-2.278242 0.45594,0.281784 0.82897,1.639649 0.82897,3.017481 0,1.37783 -9.31644,37.157888 -20.7032,79.511239 -15.83195,58.88733 -20.63097,78.10747 -20.39622,81.68699 1.04194,15.88764 16.62962,1.6534 51.67812,-47.19104 5.44777,-7.59213 10.28193,-13.57093 10.74259,-13.28623 1.4804,0.91493 0.87996,4.79873 -1.54094,9.96735 -3.39006,7.23775 -28.80098,40.77201 -38.6034,50.94411 -4.57975,4.75246 -10.58693,9.87094 -13.34928,11.3744 -9.5117,5.17692 -19.75303,4.3233 -23.8905,-1.99127 -2.41437,-3.6848 -2.17272,-12.94792 0.60159,-23.06034 1.1432,-4.16699 2.07854,-7.87841 2.07854,-8.24758 0,-0.36916 -2.60618,3.5543 -5.79152,8.71883 -6.58749,10.68059 -17.95952,22.92208 -23.92149,25.75044 -5.07121,2.40578 -14.83039,2.48832 -19.28791,0.16313 -7.48789,-3.90593 -12.13199,-12.36459 -13.19198,-24.02754 l -0.51811,-5.70077 -8.86462,7.82348 c -10.62638,9.3783 -17.74042,14.21831 -27.44179,18.66993 -9.79317,4.49375 -16.90747,5.90953 -27.0265,5.37842 -6.88674,-0.36146 -9.4338,-0.98143 -13.80376,-3.35985 -9.81023,-5.3394 -15.10195,-14.48052 -16.00437,-27.64652 l -0.54203,-7.90803 -7.78412,9.25805 c -16.60126,19.7447 -30.0636,28.82684 -42.72965,28.82684 -5.96147,0 -10.73585,-2.87622 -13.4992,-8.13229 -3.36043,-6.39177 -2.53427,-13.7908 3.70303,-33.16376 4.00512,-12.43987 4.58231,-15.0184 2.84078,-12.69076 -1.20209,1.60664 -6.09746,8.17875 -10.8786,14.6047 -20.91076,28.10444 -34.04499,39.1375 -47.69175,40.06216 -4.58613,0.31074 -7.10058,-0.0759 -10.32283,-1.58689 z m 251.99842,-8.14378 c 4.06119,-1.54407 11.93811,-9.45254 17.6627,-17.73343 6.56788,-9.50078 16.68608,-30.61549 22.00661,-45.92348 l 4.09107,-11.77067 -3.51458,-3.08583 c -6.50177,-5.70863 -13.31489,-3.64604 -23.99485,7.26414 -23.95075,24.46706 -37.78521,63.72545 -24.91954,70.71478 3.19237,1.73426 5.18913,1.85737 8.66859,0.53449 z M 269.0785,163.43522 c 14.37708,-5.71335 24.91631,-14.76773 30.57944,-26.27118 2.85861,-5.80667 3.33425,-7.83023 3.33425,-14.18535 0,-6.57491 -0.2687,-7.63009 -2.37783,-9.33796 -9.33423,-7.55841 -26.67798,6.85707 -35.37114,29.3992 -2.82756,7.33211 -6.01493,18.82 -6.05025,21.80624 -0.0224,1.89356 2.46257,1.53889 9.88553,-1.41095 z m 258.78987,39.9976 c -6.27961,-2.01875 -9.74624,-5.17359 -13.04273,-11.86971 -2.96027,-6.01317 -3.27454,-7.52456 -3.28572,-15.80172 -0.0239,-17.62654 7.24577,-32.78851 23.50971,-49.03346 11.1397,-11.1267 19.09893,-16.04196 30.83843,-19.04442 9.24706,-2.365 17.52582,-2.5291 26.94062,-0.53402 9.77683,2.07179 12.27042,3.47335 12.62706,7.09723 0.16352,1.66158 -1.46432,8.68379 -3.61743,15.60492 -2.15311,6.92113 -6.79798,22.65617 -10.32192,34.96678 -5.15264,18.00031 -6.21928,22.91025 -5.44755,25.07618 2.87008,8.05529 10.83966,4.52945 24.21759,-10.71416 6.1983,-7.0627 26.0728,-33.35397 34.05536,-45.05062 4.89332,-7.17006 6.66575,-8.23339 6.62306,-3.97332 -0.0432,4.30839 -3.89134,10.51416 -19.16869,30.91259 -24.3595,32.52496 -36.35656,43.28089 -48.29299,43.29689 -7.93646,0.0107 -14.10109,-5.86676 -14.10109,-13.44408 0,-2.2125 4.84182,-22.43989 6.54312,-27.33476 0.38508,-1.10794 -0.44335,-0.0999 -1.84096,2.24001 -10.43779,17.47542 -22.4503,31.73906 -29.95381,35.56706 -4.68598,2.39061 -12.24361,3.33686 -16.28206,2.03861 z m 18.11178,-11.99127 c 10.78728,-7.78371 26.09932,-31.49955 38.55113,-59.70941 6.99656,-15.85085 7.01147,-16.58123 0.38445,-18.83641 -11.5155,-3.91872 -24.34693,4.74497 -38.0772,25.70949 -18.1639,27.73414 -22.90063,51.30898 -11.18763,55.68117 2.49798,0.93245 6.6972,-0.22409 10.32925,-2.84484 z m 160.52764,11.97951 c -9.66469,-2.42613 -17.24644,-14.51447 -17.24644,-27.49774 0,-5.86348 2.85868,-18.45712 5.59319,-24.64035 6.93892,-15.69012 22.26669,-32.04725 37.05884,-39.54755 7.75956,-3.93447 9.60958,-4.45704 17.18685,-4.85475 6.04055,-0.31704 9.81674,0.006 13.08372,1.11913 l 4.59244,1.5648 0.9853,-3.70897 c 0.54193,-2.03992 5.29076,-20.43703 10.55297,-40.882435 5.26221,-20.445409 9.93695,-37.542764 10.38831,-37.994123 1.01794,-1.017939 14.42318,-2.980714 15.5598,-2.278242 0.45594,0.281784 0.82897,1.639649 0.82897,3.017481 0,1.37783 -9.31644,37.157888 -20.7032,79.511239 -21.47555,79.87887 -22.52313,84.84239 -18.4457,87.39799 2.61228,1.63729 7.10251,-0.83177 14.0344,-7.71716 8.81002,-8.75092 25.79145,-31.16347 31.14908,-41.11139 5.82247,-10.81102 21.42225,-26.95701 31.33453,-32.43166 8.02443,-4.43199 20.16703,-7.70169 28.51316,-7.6779 6.75514,0.0192 18.20222,2.16497 22.51007,4.21943 4.03992,1.92667 3.94033,5.47991 -0.55897,19.94278 -2.15311,6.92113 -6.79797,22.65617 -10.32192,34.96678 -5.15264,18.00031 -6.21927,22.91025 -5.44755,25.07618 4.45969,12.51673 20.0621,-1.91764 54.56574,-50.48076 6.5321,-9.19379 7.3482,-10.90671 9.35765,-19.6408 6.08056,-26.429294 12.94088,-45.956822 24.66729,-70.214131 11.91179,-24.640812 24.17843,-42.5946063 29.10193,-42.5946063 1.00984,0 2.42377,1.5573396 3.42948,3.7770783 1.37687,3.039025 1.69949,6.729291 1.65114,18.885389 -0.0685,17.229421 -1.64953,27.175785 -7.11612,44.766656 -7.11843,22.906733 -16.25583,40.233564 -36.75328,69.693714 -5.30012,7.61767 -6.46465,33.23481 -1.93608,42.5896 3.45265,7.13221 10.14161,8.71508 18.97171,4.48946 9.58411,-4.58639 28.8533,-26.78219 49.6385,-57.17722 l 6.4647,-9.45373 0.3084,3.59144 c 0.3794,4.41879 -1.8645,8.9998 -10.9562,22.36658 -16.2894,23.94898 -34.46209,43.48786 -46.33058,49.81372 -7.02788,3.74581 -14.50931,4.83972 -21.08117,3.08241 -5.91049,-1.58045 -13.15512,-8.9174 -15.5258,-15.72366 -2.53795,-7.28649 -3.06955,-21.27049 -1.25946,-33.1305 0.84438,-5.53252 1.45381,-10.13595 1.35429,-10.22982 -0.0995,-0.0939 -6.29981,8.0385 -13.77843,18.07197 -22.87101,30.68423 -35.59819,41.97285 -47.33937,41.98859 -7.93647,0.0107 -14.1011,-5.86676 -14.1011,-13.44408 0,-2.2125 4.84183,-22.43989 6.54312,-27.33476 0.38508,-1.10794 -0.44335,-0.0999 -1.84096,2.24001 -5.84977,9.79396 -15.35931,22.8096 -20.4287,27.96065 -7.31853,7.43639 -12.40587,9.98619 -20.02979,10.03902 -12.63306,0.0875 -20.83639,-9.22971 -22.28656,-25.31281 l -0.6521,-7.23198 -6.27535,7.73559 c -8.23935,10.15662 -18.11453,19.50862 -23.5025,22.25736 -9.02492,4.60416 -19.03005,3.49814 -22.98713,-2.54112 -2.41437,-3.6848 -2.17272,-12.94792 0.60159,-23.06034 1.1432,-4.16699 2.07854,-7.87841 2.07854,-8.24758 0,-0.36916 -2.60618,3.5543 -5.79152,8.71883 -6.48032,10.50683 -17.97751,22.95672 -23.58675,25.54126 -4.59474,2.1171 -11.35015,2.85784 -15.82298,1.73503 z m 14.44325,-9.09932 c 4.06119,-1.54407 11.93811,-9.45254 17.6627,-17.73343 6.56788,-9.50078 16.68608,-30.61549 22.00661,-45.92348 l 4.09107,-11.77067 -3.51458,-3.08583 c -6.50177,-5.70863 -13.31488,-3.64604 -23.99485,7.26414 -23.95075,24.46706 -37.78521,63.72545 -24.91954,70.71478 3.19237,1.73426 5.18913,1.85737 8.66859,0.53449 z m 116.11591,-2.88019 c 10.78728,-7.78371 26.09932,-31.49955 38.55114,-59.70941 6.99655,-15.85085 7.01146,-16.58123 0.38444,-18.83641 -11.5155,-3.91872 -24.34693,4.74497 -38.0772,25.70949 -18.1639,27.73414 -22.90063,51.30898 -11.18763,55.68117 2.49798,0.93245 6.6972,-0.22409 10.32925,-2.84484 z M 965.33738,120.0416 c 10.09951,-16.57324 16.59135,-33.507322 19.18665,-50.048875 1.09938,-7.006404 0.57321,-25.776125 -0.96109,-34.289466 l -0.72016,-3.995718 -3.66558,8.024601 c -9.71102,21.259225 -18.72222,54.303897 -21.9696,80.563458 -0.61521,4.97532 -1.33144,10.17916 -1.59163,11.56409 -0.46686,2.48536 -0.43963,2.47883 2.09746,-0.50361 1.41373,-1.66192 4.84453,-6.75343 7.62395,-11.31448 z M 282.4281,95.235215 c 0.23082,-0.200487 9.03141,-7.966965 19.55687,-17.258828 20.44196,-18.046159 23.89182,-20.641374 27.44677,-20.64728 2.98072,-0.0049 6.29513,3.399353 6.29513,6.465891 0,4.460852 -4.79409,8.248587 -25.41271,20.078163 -16.51076,9.47277 -21.19505,11.726568 -24.3724,11.726568 -2.16333,0 -3.74448,-0.164026 -3.51366,-0.364514 z M 209.75307,80.743222 c -5.27759,-2.673143 -5.46596,-2.910525 -5.39522,-6.798738 0.0755,-4.149953 4.48289,-12.590259 6.57442,-12.590259 0.5955,0 3.98919,1.625382 7.54153,3.61196 l 6.45878,3.61196 0,5.228914 c 0,9.97379 -4.82738,12.179624 -15.17951,6.936163 z M 1039.1698,51.886349 c -3.1786,-3.178564 -3.4238,-3.883967 -3.4151,-9.820402 0.012,-8.222021 3.3717,-14.354467 12.3893,-22.615158 5.9616,-5.46113 23.7277,-16.98456 24.6949,-16.0174548 1.4212,1.4212137 -1.473,5.8777385 -5.6266,8.6639308 -7.1333,4.785061 -16.1985,13.992171 -17.4197,17.692502 -2.0196,6.119363 2.5651,9.826687 9.2643,7.491346 1.7615,-0.61407 3.4115,-0.907662 3.6669,-0.652426 1.0431,1.043192 -3.3958,14.31358 -5.4911,16.415966 -1.8531,1.859313 -3.3702,2.266247 -8.4485,2.266247 -5.6965,0 -6.4628,-0.272963 -9.6144,-3.424551 z m 43.7955,1.91061 c -3.9973,-2.172244 -6.2872,-7.860689 -5.5773,-13.854469 1.0908,-9.210305 8.7045,-18.76191 22.2141,-27.86827 6.8669,-4.6287367 15.7136,-9.5864626 15.7136,-8.8059612 0,3.0456664 -3.025,6.8317722 -8.1839,10.2429792 -6.9293,4.581865 -14.7138,12.680977 -15.6063,16.237044 -1.594,6.35081 2.4233,9.765324 8.8523,7.524153 1.7752,-0.618843 3.5833,-0.76959 4.0179,-0.334993 0.7579,0.75796 -2.3758,12.657025 -3.9371,14.949206 -2.3807,3.495296 -12.5361,4.604286 -17.4933,1.910311 z"
     id="path2888" />
</svg>
